<svg width="46" height="41" viewBox="0 0 46 41" fill="none" xmlns="http://www.w3.org/2000/svg">
<path d="M32.8331 16.2654C32.8331 11.4924 29.1616 7.58838 23.0427 7.58838C16.9238 7.58838 13.5576 11.4924 13.5576 16.2654C13.5576 21.0383 14.9045 20.4258 14.9045 23.1195C14.9045 24.1296 13.9248 23.6398 13.9248 25.8132C13.9248 28.1987 17.2596 27.863 18.2393 28.8408C19.2171 29.8205 19.1249 31.6267 19.1249 31.6267C19.1249 31.6267 19.3094 32.3601 19.6461 32.1452C19.6461 32.1452 19.8601 32.6655 20.1055 32.3592C20.1055 32.3592 20.3499 32.8786 20.5944 32.4514C20.5944 32.4514 20.8398 33.0326 21.2374 32.6046C21.2374 32.6046 21.6341 33.1857 22.0953 32.7273C22.0953 32.7273 22.6147 33.2162 23.1958 32.85C23.777 33.2162 24.2973 32.7273 24.2973 32.7273C24.7558 33.1857 25.1552 32.6046 25.1552 32.6046C25.5519 33.0335 25.7954 32.4514 25.7954 32.4514C26.0427 32.8795 26.2843 32.3592 26.2843 32.3592C26.5307 32.6655 26.7456 32.1452 26.7456 32.1452C27.0814 32.3592 27.265 31.6258 27.265 31.6258C27.265 31.6258 27.1727 29.8214 28.1524 28.8417C29.1321 27.8639 32.466 28.1997 32.466 25.8132C32.466 23.6407 31.4881 24.1296 31.4881 23.1195C31.4881 20.4258 32.835 21.0383 32.835 16.2654H32.8331ZM18.4293 25.3538C16.7845 25.6167 16.04 25.1554 15.8602 23.9774C15.3915 20.9073 18.2171 20.411 19.6239 20.5799C20.2974 20.661 21.4597 21.3751 21.4597 22.2634C21.4597 24.6499 19.9597 25.1093 18.4293 25.3538ZM24.0824 29.3297C23.7779 29.3297 23.289 28.933 23.2576 28.1987C23.2272 28.933 22.6765 29.3306 22.372 29.3306C22.0649 29.3306 21.6064 29.0262 21.575 28.291C21.5446 27.5567 22.5233 24.589 23.2281 24.589C23.9311 24.589 24.9108 27.5567 24.8794 28.291C24.848 29.0253 24.3905 29.3306 24.0833 29.3306L24.0824 29.3297ZM30.4476 23.9774C30.2686 25.1554 29.5223 25.6167 27.8775 25.3538C26.348 25.1084 24.8489 24.6499 24.8489 22.2634C24.8489 21.3751 26.0113 20.661 26.6847 20.5799C28.0915 20.411 30.918 20.9073 30.4476 23.9774Z" fill="#930000"/>
<path d="M23 1.5C35.0411 1.5 44.5 10.1642 44.5 20.5C44.5 30.8358 35.0411 39.5 23 39.5C10.9589 39.5 1.5 30.8358 1.5 20.5C1.5 10.1642 10.9589 1.5 23 1.5Z" stroke="#930000" stroke-width="3"/>
</svg>
